<svg width="605" height="207" viewBox="0 0 605 207" fill="none" xmlns="http://www.w3.org/2000/svg">
<g filter="url(#filter0_di_23_2)">
<ellipse cx="500.898" cy="103.5" rx="79.8482" ry="79.5" fill="#F2EAEA"/>
</g>
<path d="M558.849 139.78L520.18 166.28L482.014 139.78L520.18 112.78L558.849 139.78Z" fill="#21205F"/>
<path d="M512.95 135L474.282 161.5L436.115 135L474.282 108L512.95 135Z" fill="#21205F"/>
<path d="M440.133 66.5L478.299 39L515.964 66.5L478.299 93.5L440.133 66.5Z" fill="#3A53A4"/>
<path d="M478.802 131L478.299 93.5L515.964 66.5V104L478.802 131Z" fill="#21205F" stroke="url(#paint0_linear_23_2)"/>
<path d="M478.801 131.5V94L440.635 67.5V105.5L478.801 131.5Z" fill="#243E90" stroke="url(#paint1_linear_23_2)"/>
<path d="M490.352 66.5L528.518 39L566.183 66.5L528.518 93.5L490.352 66.5Z" fill="#3A53A4"/>
<path d="M529.021 131L528.518 93.5L566.183 66.5V104L529.021 131Z" fill="#21205F" stroke="url(#paint2_linear_23_2)"/>
<path d="M529.021 131.5V94L490.854 67.5V105.5L529.021 131.5Z" fill="#243E90" stroke="url(#paint3_linear_23_2)"/>
<path d="M57.658 91.804C54.7994 91.804 51.9407 91.268 49.082 90.196C46.268 89.0793 43.7667 87.4937 41.578 85.439L46.871 79.141C48.4343 80.5703 50.1763 81.7093 52.097 82.558C54.0623 83.4067 55.983 83.831 57.859 83.831C60.0477 83.831 61.678 83.429 62.75 82.625C63.8667 81.7763 64.425 80.615 64.425 79.141C64.425 78.1583 64.157 77.3543 63.621 76.729C63.085 76.1037 62.3257 75.5677 61.343 75.121C60.405 74.6297 59.2883 74.116 57.993 73.58L52.231 71.101C50.7123 70.4757 49.283 69.6493 47.943 68.622C46.603 67.5947 45.5087 66.3217 44.66 64.803C43.8113 63.2397 43.387 61.4083 43.387 59.309C43.387 56.897 44.0347 54.7307 45.33 52.81C46.67 50.8893 48.479 49.3707 50.757 48.254C53.0797 47.0927 55.715 46.512 58.663 46.512C61.209 46.512 63.688 47.0033 66.1 47.986C68.5567 48.9687 70.7007 50.3533 72.532 52.14L67.842 57.969C66.4574 56.8523 65.028 55.9813 63.554 55.356C62.08 54.7307 60.4497 54.418 58.663 54.418C56.8763 54.418 55.4247 54.7977 54.308 55.557C53.236 56.3163 52.7 57.3883 52.7 58.773C52.7 59.711 52.9903 60.4927 53.571 61.118C54.1517 61.7433 54.9557 62.3017 55.983 62.793C57.055 63.2397 58.2163 63.731 59.467 64.267L65.095 66.545C66.8817 67.2597 68.4227 68.153 69.718 69.225C71.0134 70.297 72.0184 71.5923 72.733 73.111C73.4924 74.585 73.872 76.3493 73.872 78.404C73.872 80.816 73.2243 83.0493 71.929 85.104C70.6784 87.114 68.8247 88.7443 66.368 89.995C63.956 91.201 61.0527 91.804 57.658 91.804ZM88.8638 91.804C86.8985 91.804 85.1788 91.3797 83.7048 90.531C82.2308 89.6377 81.0695 88.454 80.2208 86.98C79.4168 85.4613 79.0148 83.764 79.0148 81.888C79.0148 78.404 80.5111 75.6793 83.5038 73.714C86.4965 71.7487 91.3205 70.4087 97.9758 69.694C97.9311 68.6667 97.7078 67.751 97.3058 66.947C96.9485 66.143 96.3678 65.5177 95.5638 65.071C94.8045 64.6243 93.7771 64.401 92.4818 64.401C91.0078 64.401 89.5338 64.6913 88.0598 65.272C86.6305 65.808 85.1341 66.545 83.5708 67.483L80.2208 61.386C81.5608 60.582 82.9901 59.845 84.5088 59.175C86.0275 58.505 87.5908 57.9913 89.1988 57.634C90.8068 57.232 92.4818 57.031 94.2238 57.031C97.0378 57.031 99.4051 57.5893 101.326 58.706C103.246 59.8227 104.698 61.4753 105.681 63.664C106.663 65.808 107.155 68.5327 107.155 71.838V91H99.6508L98.9808 87.516H98.7128C97.3281 88.7667 95.8095 89.794 94.1568 90.598C92.5488 91.402 90.7845 91.804 88.8638 91.804ZM91.9458 84.702C93.1518 84.702 94.2015 84.434 95.0948 83.898C96.0328 83.3173 96.9931 82.558 97.9758 81.62V75.322C95.4298 75.6347 93.4198 76.0813 91.9458 76.662C90.4718 77.198 89.4221 77.868 88.7968 78.672C88.1715 79.4313 87.8588 80.2577 87.8588 81.151C87.8588 82.357 88.2385 83.2503 88.9978 83.831C89.7571 84.4117 90.7398 84.702 91.9458 84.702ZM117.367 91V55.624C117.367 53.2567 117.746 51.135 118.506 49.259C119.265 47.383 120.516 45.909 122.258 44.837C124 43.7203 126.3 43.162 129.159 43.162C130.499 43.162 131.727 43.296 132.844 43.564C133.96 43.7873 134.876 44.033 135.591 44.301L133.916 51.068C133.335 50.8 132.754 50.6213 132.174 50.532C131.593 50.398 131.012 50.331 130.432 50.331C129.181 50.331 128.221 50.733 127.551 51.537C126.881 52.2963 126.546 53.5693 126.546 55.356V91H117.367ZM112.945 65.071V58.237L117.836 57.835H132.643V65.071H112.945ZM152.743 91.804C149.616 91.804 146.78 91.1117 144.234 89.727C141.733 88.3423 139.745 86.377 138.271 83.831C136.797 81.2403 136.06 78.1137 136.06 74.451C136.06 70.8777 136.797 67.7957 138.271 65.205C139.79 62.6143 141.733 60.6043 144.1 59.175C146.467 57.7457 148.969 57.031 151.604 57.031C154.686 57.031 157.254 57.7233 159.309 59.108C161.408 60.4927 162.972 62.391 163.999 64.803C165.071 67.1703 165.607 69.8727 165.607 72.91C165.607 73.714 165.562 74.518 165.473 75.322C165.384 76.0813 165.294 76.662 165.205 77.064H143.296L143.229 70.967H157.701C157.701 68.9123 157.232 67.2597 156.294 66.009C155.356 64.7137 153.86 64.066 151.805 64.066C150.599 64.066 149.438 64.401 148.321 65.071C147.204 65.741 146.289 66.8577 145.574 68.421C144.859 69.9397 144.502 71.9497 144.502 74.451C144.502 76.997 144.949 79.0293 145.842 80.548C146.78 82.022 147.964 83.094 149.393 83.764C150.822 84.434 152.341 84.769 153.949 84.769C155.289 84.769 156.54 84.5903 157.701 84.233C158.907 83.831 160.113 83.2727 161.319 82.558L164.334 88.119C162.681 89.2357 160.828 90.129 158.773 90.799C156.763 91.469 154.753 91.804 152.743 91.804ZM173.29 91V47.316H182.737L194.797 69.962L199.219 79.476H199.487C199.264 77.1533 198.996 74.6073 198.683 71.838C198.415 69.0687 198.281 66.411 198.281 63.865V47.316H207.058V91H197.611L185.551 68.287L181.129 58.84H180.861C181.084 61.1627 181.33 63.6863 181.598 66.411C181.911 69.1357 182.067 71.771 182.067 74.317V91H173.29ZM226.495 91.804C224.307 91.804 222.051 91.3797 219.728 90.531C217.45 89.6377 215.485 88.521 213.832 87.181L217.986 81.419C219.505 82.5357 220.979 83.4067 222.408 84.032C223.838 84.6573 225.289 84.97 226.763 84.97C228.327 84.97 229.466 84.6797 230.18 84.099C230.895 83.5183 231.252 82.7367 231.252 81.754C231.252 80.9947 230.917 80.347 230.247 79.811C229.622 79.2303 228.773 78.739 227.701 78.337C226.674 77.8903 225.58 77.4437 224.418 76.997C223.034 76.461 221.649 75.791 220.264 74.987C218.924 74.183 217.785 73.1557 216.847 71.905C215.954 70.6543 215.507 69.1133 215.507 67.282C215.507 64.2447 216.646 61.788 218.924 59.912C221.202 57.9913 224.217 57.031 227.969 57.031C230.471 57.031 232.659 57.4553 234.535 58.304C236.411 59.1527 238.042 60.113 239.426 61.185L235.339 66.746C234.133 65.8527 232.95 65.1603 231.788 64.669C230.627 64.133 229.443 63.865 228.237 63.865C226.853 63.865 225.803 64.1553 225.088 64.736C224.418 65.272 224.083 65.9867 224.083 66.88C224.083 67.5947 224.396 68.1977 225.021 68.689C225.647 69.1803 226.473 69.627 227.5 70.029C228.528 70.431 229.622 70.833 230.783 71.235C232.213 71.771 233.62 72.441 235.004 73.245C236.389 74.0043 237.55 75.0317 238.488 76.327C239.426 77.5777 239.895 79.208 239.895 81.218C239.895 83.1833 239.382 84.97 238.354 86.578C237.327 88.186 235.808 89.459 233.798 90.397C231.833 91.335 229.399 91.804 226.495 91.804ZM260.964 91.804C257.837 91.804 255.001 91.1117 252.455 89.727C249.953 88.3423 247.966 86.377 246.492 83.831C245.018 81.2403 244.281 78.1137 244.281 74.451C244.281 70.8777 245.018 67.7957 246.492 65.205C248.01 62.6143 249.953 60.6043 252.321 59.175C254.688 57.7457 257.189 57.031 259.825 57.031C262.907 57.031 265.475 57.7233 267.53 59.108C269.629 60.4927 271.192 62.391 272.22 64.803C273.292 67.1703 273.828 69.8727 273.828 72.91C273.828 73.714 273.783 74.518 273.694 75.322C273.604 76.0813 273.515 76.662 273.426 77.064H251.517L251.45 70.967H265.922C265.922 68.9123 265.453 67.2597 264.515 66.009C263.577 64.7137 262.08 64.066 260.026 64.066C258.82 64.066 257.658 64.401 256.542 65.071C255.425 65.741 254.509 66.8577 253.795 68.421C253.08 69.9397 252.723 71.9497 252.723 74.451C252.723 76.997 253.169 79.0293 254.063 80.548C255.001 82.022 256.184 83.094 257.614 83.764C259.043 84.434 260.562 84.769 262.17 84.769C263.51 84.769 264.76 84.5903 265.922 84.233C267.128 83.831 268.334 83.2727 269.54 82.558L272.555 88.119C270.902 89.2357 269.048 90.129 266.994 90.799C264.984 91.469 262.974 91.804 260.964 91.804ZM294.978 91.804C291.94 91.804 289.193 91.134 286.737 89.794C284.28 88.4093 282.315 86.4217 280.841 83.831C279.411 81.2403 278.697 78.1137 278.697 74.451C278.697 70.7883 279.501 67.6617 281.109 65.071C282.717 62.4803 284.816 60.4927 287.407 59.108C289.997 57.7233 292.789 57.031 295.782 57.031C297.836 57.031 299.668 57.3883 301.276 58.103C302.884 58.773 304.291 59.6217 305.497 60.649L301.075 66.612C300.271 65.8527 299.489 65.3167 298.73 65.004C298.015 64.6467 297.211 64.468 296.318 64.468C294.665 64.468 293.213 64.8923 291.963 65.741C290.757 66.545 289.819 67.7063 289.149 69.225C288.479 70.699 288.144 72.441 288.144 74.451C288.144 76.461 288.479 78.2253 289.149 79.744C289.819 81.218 290.734 82.357 291.896 83.161C293.102 83.965 294.464 84.367 295.983 84.367C297.144 84.367 298.261 84.1213 299.333 83.63C300.405 83.1387 301.365 82.5357 302.214 81.821L305.899 87.851C304.291 89.2357 302.526 90.2407 300.606 90.866C298.685 91.4913 296.809 91.804 294.978 91.804ZM321.833 91.804C318.304 91.804 315.713 90.6203 314.061 88.253C312.408 85.8857 311.582 82.625 311.582 78.471V57.835H320.761V77.332C320.761 79.8333 321.118 81.5753 321.833 82.558C322.592 83.496 323.731 83.965 325.25 83.965C326.545 83.965 327.662 83.6747 328.6 83.094C329.538 82.4687 330.52 81.4413 331.548 80.012V57.835H340.727V91H333.223L332.553 86.31H332.352C330.922 88.0073 329.381 89.3473 327.729 90.33C326.076 91.3127 324.111 91.804 321.833 91.804ZM349.801 91V57.835H357.305L357.975 63.664H358.243C359.449 61.4753 360.878 59.8227 362.531 58.706C364.228 57.5893 365.925 57.031 367.623 57.031C368.516 57.031 369.275 57.098 369.901 57.232C370.526 57.3213 371.062 57.4777 371.509 57.701L369.968 65.674C369.387 65.4953 368.829 65.3613 368.293 65.272C367.801 65.1827 367.198 65.138 366.484 65.138C365.188 65.138 363.848 65.607 362.464 66.545C361.079 67.483 359.918 69.1357 358.98 71.503V91H349.801ZM390.58 91.804C387.453 91.804 384.617 91.1117 382.071 89.727C379.57 88.3423 377.582 86.377 376.108 83.831C374.634 81.2403 373.897 78.1137 373.897 74.451C373.897 70.8777 374.634 67.7957 376.108 65.205C377.627 62.6143 379.57 60.6043 381.937 59.175C384.304 57.7457 386.806 57.031 389.441 57.031C392.523 57.031 395.091 57.7233 397.146 59.108C399.245 60.4927 400.809 62.391 401.836 64.803C402.908 67.1703 403.444 69.8727 403.444 72.91C403.444 73.714 403.399 74.518 403.31 75.322C403.221 76.0813 403.131 76.662 403.042 77.064H381.133L381.066 70.967H395.538C395.538 68.9123 395.069 67.2597 394.131 66.009C393.193 64.7137 391.697 64.066 389.642 64.066C388.436 64.066 387.275 64.401 386.158 65.071C385.041 65.741 384.126 66.8577 383.411 68.421C382.696 69.9397 382.339 71.9497 382.339 74.451C382.339 76.997 382.786 79.0293 383.679 80.548C384.617 82.022 385.801 83.094 387.23 83.764C388.659 84.434 390.178 84.769 391.786 84.769C393.126 84.769 394.377 84.5903 395.538 84.233C396.744 83.831 397.95 83.2727 399.156 82.558L402.171 88.119C400.518 89.2357 398.665 90.129 396.61 90.799C394.6 91.469 392.59 91.804 390.58 91.804Z" fill="white"/>
<path d="M140.308 141.504C138.852 141.504 137.466 141.238 136.15 140.706C134.834 140.146 133.7 139.474 132.748 138.69L134.302 136.632C135.198 137.332 136.122 137.92 137.074 138.396C138.026 138.872 139.146 139.11 140.434 139.11C141.834 139.11 142.884 138.774 143.584 138.102C144.284 137.43 144.634 136.632 144.634 135.708C144.634 134.98 144.396 134.378 143.92 133.902C143.444 133.398 142.842 132.978 142.114 132.642C141.386 132.278 140.644 131.956 139.888 131.676C138.936 131.34 137.984 130.934 137.032 130.458C136.08 129.982 135.282 129.38 134.638 128.652C134.022 127.924 133.714 126.986 133.714 125.838C133.714 124.242 134.316 122.898 135.52 121.806C136.752 120.686 138.46 120.126 140.644 120.126C141.876 120.126 143.024 120.35 144.088 120.798C145.152 121.246 146.062 121.778 146.818 122.394L145.348 124.368C144.648 123.864 143.92 123.444 143.164 123.108C142.436 122.744 141.596 122.562 140.644 122.562C139.3 122.562 138.306 122.884 137.662 123.528C137.018 124.144 136.696 124.858 136.696 125.67C136.696 126.342 136.906 126.902 137.326 127.35C137.774 127.77 138.348 128.134 139.048 128.442C139.748 128.75 140.49 129.058 141.274 129.366C142.282 129.73 143.262 130.15 144.214 130.626C145.194 131.074 146.006 131.676 146.65 132.432C147.294 133.188 147.616 134.224 147.616 135.54C147.616 136.604 147.336 137.598 146.776 138.522C146.216 139.418 145.39 140.146 144.298 140.706C143.206 141.238 141.876 141.504 140.308 141.504ZM158.747 141.504C156.647 141.504 155.177 140.888 154.337 139.656C153.525 138.424 153.119 136.828 153.119 134.868V123.15H150.053V120.84L153.245 120.63L153.623 114.876H156.185V120.63H161.771V123.15H156.185V134.952C156.185 136.212 156.409 137.206 156.857 137.934C157.333 138.634 158.187 138.984 159.419 138.984C159.783 138.984 160.175 138.928 160.595 138.816C161.043 138.704 161.435 138.578 161.771 138.438L162.401 140.748C161.841 140.944 161.239 141.112 160.595 141.252C159.951 141.42 159.335 141.504 158.747 141.504ZM174.247 141.504C172.595 141.504 171.055 141.084 169.627 140.244C168.199 139.404 167.051 138.2 166.183 136.632C165.315 135.036 164.881 133.104 164.881 130.836C164.881 128.568 165.315 126.636 166.183 125.04C167.051 123.444 168.199 122.226 169.627 121.386C171.055 120.546 172.595 120.126 174.247 120.126C175.899 120.126 177.425 120.546 178.825 121.386C180.253 122.226 181.401 123.444 182.269 125.04C183.165 126.636 183.613 128.568 183.613 130.836C183.613 133.104 183.165 135.036 182.269 136.632C181.401 138.2 180.253 139.404 178.825 140.244C177.425 141.084 175.899 141.504 174.247 141.504ZM174.247 138.942C175.479 138.942 176.557 138.606 177.481 137.934C178.433 137.262 179.161 136.324 179.665 135.12C180.197 133.888 180.463 132.46 180.463 130.836C180.463 129.24 180.197 127.826 179.665 126.594C179.161 125.362 178.433 124.41 177.481 123.738C176.557 123.038 175.479 122.688 174.247 122.688C173.043 122.688 171.965 123.038 171.013 123.738C170.089 124.41 169.361 125.362 168.829 126.594C168.325 127.826 168.073 129.24 168.073 130.836C168.073 132.46 168.325 133.888 168.829 135.12C169.361 136.324 170.089 137.262 171.013 137.934C171.965 138.606 173.043 138.942 174.247 138.942ZM189.159 141V120.63H191.679L191.931 124.368H192.057C192.757 123.08 193.597 122.058 194.577 121.302C195.585 120.518 196.677 120.126 197.853 120.126C198.273 120.126 198.651 120.168 198.987 120.252C199.323 120.308 199.645 120.406 199.953 120.546L199.365 123.234C199.029 123.122 198.721 123.038 198.441 122.982C198.189 122.926 197.853 122.898 197.433 122.898C196.565 122.898 195.655 123.262 194.703 123.99C193.751 124.69 192.911 125.936 192.183 127.728V141H189.159ZM211.496 141.504C209.732 141.504 208.108 141.084 206.624 140.244C205.168 139.376 204.006 138.158 203.138 136.59C202.27 134.994 201.836 133.076 201.836 130.836C201.836 128.624 202.27 126.72 203.138 125.124C204.006 123.528 205.126 122.296 206.498 121.428C207.898 120.56 209.382 120.126 210.95 120.126C212.63 120.126 214.072 120.518 215.276 121.302C216.48 122.086 217.39 123.192 218.006 124.62C218.65 126.02 218.972 127.7 218.972 129.66C218.972 129.996 218.958 130.332 218.93 130.668C218.93 130.976 218.902 131.256 218.846 131.508H204.23L204.188 129.282H216.242C216.242 127.098 215.78 125.446 214.856 124.326C213.932 123.178 212.644 122.604 210.992 122.604C209.984 122.604 209.004 122.898 208.052 123.486C207.1 124.074 206.316 124.97 205.7 126.174C205.084 127.378 204.776 128.932 204.776 130.836C204.776 132.656 205.098 134.168 205.742 135.372C206.386 136.576 207.24 137.486 208.304 138.102C209.396 138.718 210.586 139.026 211.874 139.026C212.91 139.026 213.834 138.872 214.646 138.564C215.486 138.256 216.284 137.864 217.04 137.388L218.174 139.404C217.306 139.964 216.326 140.454 215.234 140.874C214.17 141.294 212.924 141.504 211.496 141.504ZM232.512 141V120.63H235.536V141H232.512ZM234.066 116.262C233.478 116.262 232.974 116.066 232.554 115.674C232.162 115.282 231.966 114.764 231.966 114.12C231.966 113.504 232.162 113.014 232.554 112.65C232.974 112.258 233.478 112.062 234.066 112.062C234.682 112.062 235.186 112.258 235.578 112.65C235.97 113.014 236.166 113.504 236.166 114.12C236.166 114.764 235.97 115.282 235.578 115.674C235.186 116.066 234.682 116.262 234.066 116.262ZM242.684 141V120.63H245.204L245.456 123.654H245.582C246.562 122.646 247.598 121.806 248.69 121.134C249.81 120.462 251.056 120.126 252.428 120.126C254.584 120.126 256.152 120.798 257.132 122.142C258.14 123.486 258.644 125.46 258.644 128.064V141H255.578V128.442C255.578 126.482 255.256 125.054 254.612 124.158C253.996 123.262 252.974 122.814 251.546 122.814C250.482 122.814 249.516 123.094 248.648 123.654C247.78 124.186 246.8 124.998 245.708 126.09V141H242.684ZM282.633 141.504C281.681 141.504 280.687 141.28 279.651 140.832C278.643 140.356 277.677 139.712 276.753 138.9H276.627L276.333 141H273.897V111.012H276.921V119.328L276.837 123.066C277.789 122.226 278.825 121.526 279.945 120.966C281.065 120.406 282.213 120.126 283.389 120.126C285.153 120.126 286.637 120.56 287.841 121.428C289.045 122.268 289.941 123.472 290.529 125.04C291.145 126.58 291.453 128.4 291.453 130.5C291.453 132.824 291.033 134.812 290.193 136.464C289.381 138.088 288.303 139.334 286.959 140.202C285.615 141.07 284.173 141.504 282.633 141.504ZM282.129 138.9C283.333 138.9 284.397 138.564 285.321 137.892C286.245 137.22 286.973 136.254 287.505 134.994C288.037 133.734 288.303 132.25 288.303 130.542C288.303 129.002 288.107 127.644 287.715 126.468C287.351 125.292 286.749 124.382 285.909 123.738C285.097 123.066 284.019 122.73 282.675 122.73C281.779 122.73 280.855 122.982 279.903 123.486C278.951 123.962 277.957 124.69 276.921 125.67V136.674C277.873 137.486 278.811 138.06 279.735 138.396C280.659 138.732 281.457 138.9 282.129 138.9ZM300.348 141.504C299.592 141.504 298.962 141.336 298.458 141C297.954 140.692 297.59 140.23 297.366 139.614C297.142 138.97 297.03 138.186 297.03 137.262V111.012H300.054V137.514C300.054 138.018 300.152 138.382 300.348 138.606C300.544 138.83 300.768 138.942 301.02 138.942C301.104 138.942 301.202 138.942 301.314 138.942C301.426 138.914 301.58 138.886 301.776 138.858L302.196 141.21C301.972 141.266 301.706 141.322 301.398 141.378C301.118 141.462 300.768 141.504 300.348 141.504ZM315.3 141.504C313.648 141.504 312.108 141.084 310.68 140.244C309.252 139.404 308.104 138.2 307.236 136.632C306.368 135.036 305.934 133.104 305.934 130.836C305.934 128.568 306.368 126.636 307.236 125.04C308.104 123.444 309.252 122.226 310.68 121.386C312.108 120.546 313.648 120.126 315.3 120.126C316.952 120.126 318.478 120.546 319.878 121.386C321.306 122.226 322.454 123.444 323.322 125.04C324.218 126.636 324.666 128.568 324.666 130.836C324.666 133.104 324.218 135.036 323.322 136.632C322.454 138.2 321.306 139.404 319.878 140.244C318.478 141.084 316.952 141.504 315.3 141.504ZM315.3 138.942C316.532 138.942 317.61 138.606 318.534 137.934C319.486 137.262 320.214 136.324 320.718 135.12C321.25 133.888 321.516 132.46 321.516 130.836C321.516 129.24 321.25 127.826 320.718 126.594C320.214 125.362 319.486 124.41 318.534 123.738C317.61 123.038 316.532 122.688 315.3 122.688C314.096 122.688 313.018 123.038 312.066 123.738C311.142 124.41 310.414 125.362 309.882 126.594C309.378 127.826 309.126 129.24 309.126 130.836C309.126 132.46 309.378 133.888 309.882 135.12C310.414 136.324 311.142 137.262 312.066 137.934C313.018 138.606 314.096 138.942 315.3 138.942ZM338.107 141.504C336.315 141.504 334.705 141.084 333.277 140.244C331.849 139.404 330.715 138.2 329.875 136.632C329.035 135.036 328.615 133.104 328.615 130.836C328.615 128.568 329.063 126.636 329.959 125.04C330.883 123.444 332.073 122.226 333.529 121.386C334.985 120.546 336.581 120.126 338.317 120.126C339.661 120.126 340.809 120.378 341.761 120.882C342.713 121.358 343.539 121.918 344.239 122.562L342.643 124.578C342.055 124.018 341.411 123.57 340.711 123.234C340.039 122.87 339.283 122.688 338.443 122.688C337.155 122.688 336.007 123.038 334.999 123.738C334.019 124.41 333.235 125.362 332.647 126.594C332.087 127.826 331.807 129.24 331.807 130.836C331.807 132.46 332.073 133.888 332.605 135.12C333.165 136.324 333.935 137.262 334.915 137.934C335.895 138.606 337.043 138.942 338.359 138.942C339.339 138.942 340.249 138.732 341.089 138.312C341.929 137.892 342.671 137.402 343.315 136.842L344.659 138.9C343.763 139.712 342.755 140.356 341.635 140.832C340.515 141.28 339.339 141.504 338.107 141.504ZM349.284 141V111.012H352.266V131.76H352.392L361.422 120.63H364.824L358.02 128.778L365.748 141H362.43L356.256 130.92L352.266 135.624V141H349.284ZM374.958 141.504C373.502 141.504 372.116 141.238 370.8 140.706C369.484 140.146 368.35 139.474 367.398 138.69L368.952 136.632C369.848 137.332 370.772 137.92 371.724 138.396C372.676 138.872 373.796 139.11 375.084 139.11C376.484 139.11 377.534 138.774 378.234 138.102C378.934 137.43 379.284 136.632 379.284 135.708C379.284 134.98 379.046 134.378 378.57 133.902C378.094 133.398 377.492 132.978 376.764 132.642C376.036 132.278 375.294 131.956 374.538 131.676C373.586 131.34 372.634 130.934 371.682 130.458C370.73 129.982 369.932 129.38 369.288 128.652C368.672 127.924 368.364 126.986 368.364 125.838C368.364 124.242 368.966 122.898 370.17 121.806C371.402 120.686 373.11 120.126 375.294 120.126C376.526 120.126 377.674 120.35 378.738 120.798C379.802 121.246 380.712 121.778 381.468 122.394L379.998 124.368C379.298 123.864 378.57 123.444 377.814 123.108C377.086 122.744 376.246 122.562 375.294 122.562C373.95 122.562 372.956 122.884 372.312 123.528C371.668 124.144 371.346 124.858 371.346 125.67C371.346 126.342 371.556 126.902 371.976 127.35C372.424 127.77 372.998 128.134 373.698 128.442C374.398 128.75 375.14 129.058 375.924 129.366C376.932 129.73 377.912 130.15 378.864 130.626C379.844 131.074 380.656 131.676 381.3 132.432C381.944 133.188 382.266 134.224 382.266 135.54C382.266 136.604 381.986 137.598 381.426 138.522C380.866 139.418 380.04 140.146 378.948 140.706C377.856 141.238 376.526 141.504 374.958 141.504ZM388.525 132.852L388.105 116.556L388.021 112.86H391.129L391.045 116.556L390.625 132.852H388.525ZM389.575 141.504C388.959 141.504 388.413 141.28 387.937 140.832C387.489 140.384 387.265 139.796 387.265 139.068C387.265 138.312 387.489 137.71 387.937 137.262C388.413 136.814 388.959 136.59 389.575 136.59C390.219 136.59 390.765 136.814 391.213 137.262C391.661 137.71 391.885 138.312 391.885 139.068C391.885 139.796 391.661 140.384 391.213 140.832C390.765 141.28 390.219 141.504 389.575 141.504Z" fill="white"/>
<defs>
<filter id="filter0_di_23_2" x="397.05" y="0" width="207.696" height="207" filterUnits="userSpaceOnUse" color-interpolation-filters="sRGB">
<feFlood flood-opacity="0" result="BackgroundImageFix"/>
<feColorMatrix in="SourceAlpha" type="matrix" values="0 0 0 0 0 0 0 0 0 0 0 0 0 0 0 0 0 0 127 0" result="hardAlpha"/>
<feMorphology radius="7" operator="dilate" in="SourceAlpha" result="effect1_dropShadow_23_2"/>
<feOffset/>
<feGaussianBlur stdDeviation="8.5"/>
<feComposite in2="hardAlpha" operator="out"/>
<feColorMatrix type="matrix" values="0 0 0 0 1 0 0 0 0 1 0 0 0 0 1 0 0 0 0.3 0"/>
<feBlend mode="normal" in2="BackgroundImageFix" result="effect1_dropShadow_23_2"/>
<feBlend mode="normal" in="SourceGraphic" in2="effect1_dropShadow_23_2" result="shape"/>
<feColorMatrix in="SourceAlpha" type="matrix" values="0 0 0 0 0 0 0 0 0 0 0 0 0 0 0 0 0 0 127 0" result="hardAlpha"/>
<feMorphology radius="3" operator="erode" in="SourceAlpha" result="effect2_innerShadow_23_2"/>
<feOffset/>
<feGaussianBlur stdDeviation="5"/>
<feComposite in2="hardAlpha" operator="arithmetic" k2="-1" k3="1"/>
<feColorMatrix type="matrix" values="0 0 0 0 0 0 0 0 0 0 0 0 0 0 0 0 0 0 1 0"/>
<feBlend mode="normal" in2="shape" result="effect2_innerShadow_23_2"/>
</filter>
<linearGradient id="paint0_linear_23_2" x1="497.131" y1="66.5" x2="497.131" y2="131" gradientUnits="userSpaceOnUse">
<stop stop-color="#114BA4" stop-opacity="0"/>
<stop offset="1" stop-color="#958080"/>
</linearGradient>
<linearGradient id="paint1_linear_23_2" x1="459.467" y1="67" x2="459.467" y2="131.5" gradientUnits="userSpaceOnUse">
<stop stop-color="#887676"/>
<stop offset="1" stop-color="#1D6DE6" stop-opacity="0"/>
</linearGradient>
<linearGradient id="paint2_linear_23_2" x1="547.35" y1="66.5" x2="547.35" y2="131" gradientUnits="userSpaceOnUse">
<stop stop-color="#114BA4" stop-opacity="0"/>
<stop offset="1" stop-color="#958080"/>
</linearGradient>
<linearGradient id="paint3_linear_23_2" x1="509.686" y1="67" x2="509.686" y2="131.5" gradientUnits="userSpaceOnUse">
<stop stop-color="#887676"/>
<stop offset="1" stop-color="#1D6DE6" stop-opacity="0"/>
</linearGradient>
</defs>
</svg>
